# xmcd
#
# Track frame offsets: 
#        150
#        4287
#        7633
#        22610
#        35003
#        48745
#        49285
#        59544
#        60368
#        71700
#        84567
#        97602
#        111010
#        111355
#        124406
#        138941
#        152641
#        167126
#        182834
#        196446
#
# Disc length: 2820 seconds
#
# Revision: 0
# Processed by: cddbd v1.5.1PL0 Copyright (c) Steve Scherf et al.
# Submitted via: ExactAudioCopy v0.95a5
#
DISCID=090b0214
DTITLE=DJ Celso - Akustic Cowboy 07
DYEAR=1900
DGENRE=Sertanejo
TTITLE0=Abertura DJ Celso
TTITLE1=Alô Moçada
TTITLE2=Trio Auto Astral/ Gandaia, Cerveja, Sanfona e Mulherada
TTITLE3=Rio Negro and Solimões/ Caminhonete Turbinada Carregada De Mulhe
TTITLE3=r
TTITLE4=Marcos and Fernando/ Nicolau
TTITLE5=Abertura Cowboy Apaixonado
TTITLE6=Cowboy Apaixonado
TTITLE7=Abertura Rodopiou
TTITLE8=Rio Negro and Solimões/ Rodopiou
TTITLE9=Teodoro and Sampaio/ Se Meu Barraco Cair
TTITLE10=Gino and Geno/ Eu Sou Feio Mais Tô Na Moda
TTITLE11=AiAiAi Essa Paixão
TTITLE12=Abertura Forró Doido Demais
TTITLE13=Rick and Renner/ Forró Doido Demais
TTITLE14=Gino and Geno/ Nóis Não Vive Sem Dinheiro
TTITLE15=Teodoro and Sampaio/ O Garrafão
TTITLE16=Hoje Eu Apago O Fogo Da Sua Cameia
TTITLE17=No Balanço Do Busão
TTITLE18=Jorge Moisés/ Mete o Chifre Nele
TTITLE19=Não Sei O Que Estou Fazendo
EXTD=
EXTT0=
EXTT1=
EXTT2=
EXTT3=
EXTT4=
EXTT5=
EXTT6=
EXTT7=
EXTT8=
EXTT9=
EXTT10=
EXTT11=
EXTT12=
EXTT13=
EXTT14=
EXTT15=
EXTT16=
EXTT17=
EXTT18=
EXTT19=
PLAYORDER=
